<?xml version="1.0" standalone="no"?>
<svg viewBox="0 0 200 200" xmlns="http://www.w3.org/2000/svg">
  <path fill="#00ADB5" d="M36.4,-68.7C45.5,-57.9,49.9,-44.6,52.9,-32.7C56,-20.9,57.7,-10.4,62.2,2.6C66.8,15.7,74.2,31.4,71.2,43.5C68.3,55.6,55.1,64,41.5,63C27.9,62,14,51.5,4.3,44.1C-5.4,36.7,-10.8,32.4,-23.1,32.7C-35.5,33,-54.7,37.8,-64.9,33.2C-75.1,28.5,-76.2,14.2,-76.8,-0.3C-77.4,-14.9,-77.5,-29.8,-68.7,-37C-59.9,-44.1,-42.3,-43.5,-29.4,-52.1C-16.5,-60.8,-8.3,-78.6,2.7,-83.3C13.7,-88,27.4,-79.6,36.4,-68.7Z" transform="translate(100 100)" />
</svg>
